<svg xmlns="http://www.w3.org/2000/svg" version="1.0" width="324" height="320" preserveAspectRatio="xMidYMid meet" style=""><rect id="backgroundrect" width="100%" height="100%" x="0" y="0" fill="none" stroke="none"/><defs><linearGradient id="svg_35"><stop stop-color="#e98a8a" stop-opacity="1" offset="0"/><stop stop-color="#167575" stop-opacity="1" offset="1"/></linearGradient><linearGradient id="svg_37"><stop stop-color="#ffffff" stop-opacity="1" offset="0"/><stop stop-color="#000000" stop-opacity="1" offset="1"/></linearGradient><radialGradient id="svg_38" spreadMethod="pad"><stop stop-color="#000099" stop-opacity="1" offset="0"/><stop stop-color="#ffff66" stop-opacity="1" offset="1"/></radialGradient><radialGradient id="svg_39" spreadMethod="reflect"><stop stop-color="#1c1077" stop-opacity="1" offset="0"/><stop stop-color="#e3ef88" stop-opacity="1" offset="1"/></radialGradient></defs>


<g class="currentLayer" style=""><title>Layer 1</title><rect fill="#e2e1ea" stroke="#29316b" stroke-dashoffset="" fill-rule="nonzero" id="svg_32" x="11.333333373069763" y="16.333333373069763" width="300" height="285" style="color: rgb(219, 127, 145);" class="" fill-opacity="1" stroke-opacity="1"/><g transform="translate(0,320) scale(0.10000000149011612,-0.10000000149011612) " fill="url(#svg_35)" stroke="#db7f91" id="svg_1" class="" fill-opacity="1" stroke-opacity="1">
<path d="M1540.4478415294,2517.1989291364016 c-36.43602919578552,-75.30843722820282 -66.16015827655792,-137.0999754667282 -64.24247252941132,-139.03096103668213 c1.9176857471466064,-0.9654927849769588 17.259171724319458,-9.654927849769592 33.55950057506561,-18.344362914562225 l31.641814827919006,-15.447884559631348 l33.55950057506561,67.58449494838715 c18.21801459789276,36.68872582912445 35.47718632221222,67.58449494838715 38.35371494293213,67.58449494838715 c2.8765286207199097,0 20.135700345039368,-30.895769119262695 38.35371494293213,-67.58449494838715 l33.55950057506561,-67.58449494838715 l31.641814827919006,15.447884559631348 c16.300328850746155,8.689435064792633 31.641814827919006,17.378870129585266 33.55950057506561,18.344362914562225 c3.835371494293213,3.861971139907837 -131.36147367954254,275.1654437184334 -137.11453092098236,275.1654437184334 c-2.8765286207199097,0 -35.47718632221222,-60.82604545354843 -72.87205839157104,-136.13448268175125 z" id="svg_2" fill="url(#svg_35)" fill-opacity="1" stroke="#db7f91" stroke-opacity="1"/>
<path d="M1588.3899852080651,2342.444735055572 c-19.176857471466064,-38.61971139907837 -19.176857471466064,-40.55069696903229 -2.8765286207199097,-53.10210317373276 c9.588428735733032,-6.7584494948387155 22.053386092185974,-12.55140620470047 27.806443333625793,-12.55140620470047 c5.753057241439819,0 18.21801459789276,5.7929567098617545 27.806443333625793,12.55140620470047 c16.300328850746155,12.55140620470047 16.300328850746155,14.482391774654388 -2.8765286207199097,53.10210317373276 c-11.506114482879639,22.206334054470062 -22.053386092185974,40.55069696903229 -24.929914712905884,40.55069696903229 c-2.8765286207199097,0 -13.423800230026245,-18.344362914562225 -24.929914712905884,-40.55069696903229 z" id="svg_3" fill="url(#svg_35)" fill-opacity="1" stroke="#db7f91" stroke-opacity="1"/>
<path d="M1567.2954419894525,2126.174351220733 c-24.929914712905884,-51.17111760377884 -45.06561505794525,-93.65280014276505 -43.147929310798645,-95.58378571271896 c1.9176857471466064,-0.9654927849769588 17.259171724319458,-9.654927849769592 34.518343448638916,-18.344362914562225 c27.806443333625793,-14.482391774654388 31.641814827919006,-14.482391774654388 36.43602919578552,-0.9654927849769588 c7.670742988586426,18.344362914562225 28.765286207199097,18.344362914562225 36.43602919578552,0 c4.794214367866516,-12.55140620470047 9.588428735733032,-12.55140620470047 39.31255781650543,1.9309855699539185 c18.21801459789276,8.689435064792633 33.55950057506561,18.344362914562225 32.60065770149231,21.240841269493103 c0,2.8964783549308777 -20.135700345039368,46.34365367889404 -45.06561505794525,95.58378571271896 l-45.06561505794525,88.82533621788025 l-46.024457931518555,-92.68730735778809 z" id="svg_4" fill="url(#svg_35)" fill-opacity="1" stroke="#db7f91" stroke-opacity="1"/>
<path d="M927.7472453160592,2049.9004212075533 c-39.31255781650543,-6.7584494948387155 -96.84313023090363,-15.447884559631348 -126.56725931167603,-18.344362914562225 c-30.682971954345703,-3.861971139907837 -55.61288666725159,-11.58591341972351 -55.61288666725159,-16.413377344608307 c0,-9.654927849769592 195.60394620895386,-203.7189776301384 210.9454321861267,-209.51193434000015 c8.629585862159729,-2.8964783549308777 47.94214367866516,35.72323304414749 47.94214367866516,47.309146463871 c0,3.861971139907837 -23.012228965759277,28.964783549308777 -49.85982942581177,55.033088743686676 c-27.806443333625793,27.03379797935486 -47.94214367866516,52.1366103887558 -44.10677218437195,55.033088743686676 c2.8765286207199097,3.861971139907837 36.43602919578552,10.620420634746552 73.83090126514435,16.413377344608307 l68.07784402370453,9.654927849769592 l0,37.65421861410141 c0,43.447175323963165 -1.9176857471466064,43.447175323963165 -124.64957356452942,23.17182683944702 z" id="svg_5" fill="url(#svg_35)" fill-opacity="1" stroke="#db7f91" stroke-opacity="1"/>
<path d="M2181.9137239499396,2058.589856272346 c-4.794214367866516,-3.861971139907837 -7.670742988586426,-21.240841269493103 -7.670742988586426,-38.61971139907837 c0,-28.964783549308777 2.8765286207199097,-31.861261904239655 41.23024356365204,-37.65421861410141 c85.33701574802399,-13.51689898967743 102.59618747234344,-16.413377344608307 102.59618747234344,-22.206334054470062 c0,-2.8964783549308777 -23.97107183933258,-27.03379797935486 -53.69520092010498,-54.06759595870972 l-53.69520092010498,-49.24013203382492 l21.09454321861267,-27.03379797935486 c11.506114482879639,-14.482391774654388 26.84760046005249,-26.0683051943779 34.518343448638916,-24.13731962442398 c14.382643103599548,2.8964783549308777 214.78080368041992,199.85700649023056 214.78080368041992,210.4774271249771 c0,3.861971139907837 -50.81867229938507,13.51689898967743 -112.18461620807648,23.17182683944702 c-62.32478678226471,8.689435064792633 -128.48494505882263,18.344362914562225 -146.7029596567154,21.240841269493103 c-18.21801459789276,2.8964783549308777 -36.43602919578552,1.9309855699539185 -40.271400690078735,-1.9309855699539185 z" id="svg_6" fill="url(#svg_35)" fill-opacity="1" stroke="#db7f91" stroke-opacity="1"/>
<path d="M1604.6903140588113,1970.7300128394427 c-11.506114482879639,-11.58591341972351 -5.753057241439819,-31.861261904239655 8.629585862159729,-31.861261904239655 c7.670742988586426,0 14.382643103599548,5.7929567098617545 14.382643103599548,13.51689898967743 c0,16.413377344608307 -13.423800230026245,27.03379797935486 -23.012228965759277,18.344362914562225 z" id="svg_7" fill="url(#svg_35)" fill-opacity="1" stroke="#db7f91" stroke-opacity="1"/>
<path d="M1021.7138469262429,1941.765229290134 c-21.09454321861267,-5.7929567098617545 -21.09454321861267,-8.689435064792633 0,-28.964783549308777 c40.271400690078735,-40.55069696903229 48.900986552238464,-44.412668108940125 64.24247252941132,-31.861261904239655 c7.670742988586426,6.7584494948387155 14.382643103599548,24.13731962442398 14.382643103599548,39.58520418405533 c0,25.10281240940094 -2.8765286207199097,27.999290764331818 -30.682971954345703,27.03379797935486 c-17.259171724319458,-0.9654927849769588 -39.31255781650543,-2.8964783549308777 -47.94214367866516,-5.7929567098617545 z" id="svg_8" fill="url(#svg_35)" fill-opacity="1" stroke="#db7f91" stroke-opacity="1"/>
<path d="M2126.300837282688,1920.5243880206408 c0,-15.447884559631348 6.7119001150131234,-32.826754689216614 14.382643103599548,-39.58520418405533 c12.464957356452942,-10.620420634746552 20.135700345039368,-7.723942279815674 48.900986552238464,20.275348484516144 c28.765286207199097,27.999290764331818 30.682971954345703,32.826754689216614 16.300328850746155,39.58520418405533 c-9.588428735733032,2.8964783549308777 -31.641814827919006,6.7584494948387155 -47.94214367866516,6.7584494948387155 c-28.765286207199097,0.9654927849769588 -31.641814827919006,-1.9309855699539185 -31.641814827919006,-27.03379797935486 z" id="svg_9" fill="url(#svg_35)" fill-opacity="1" stroke="#db7f91" stroke-opacity="1"/>
<path d="M1292.1075372739144,1909.9039673858942 c-23.97107183933258,-4.827463924884796 -64.24247252941132,-10.620420634746552 -91.0900729894638,-14.482391774654388 l-46.98330080509186,-6.7584494948387155 l74.78974413871765,-71.44646608829498 c42.18908643722534,-39.58520418405533 78.62511563301086,-71.44646608829498 82.46048712730408,-71.44646608829498 c2.8765286207199097,0 16.300328850746155,10.620420634746552 28.765286207199097,24.13731962442398 c18.21801459789276,19.309855699539185 20.135700345039368,26.0683051943779 10.547271609306335,37.65421861410141 c-14.382643103599548,17.378870129585266 -6.7119001150131234,34.75774025917053 15.341485977172852,34.75774025917053 c11.506114482879639,0 13.423800230026245,6.7584494948387155 8.629585862159729,29.930276334285736 c-2.8765286207199097,16.413377344608307 -5.753057241439819,33.79224747419357 -5.753057241439819,38.61971139907837 c0,9.654927849769592 -16.300328850746155,9.654927849769592 -76.70742988586426,-0.9654927849769588 z" id="svg_10" fill="url(#svg_35)" fill-opacity="1" stroke="#db7f91" stroke-opacity="1"/>
<path d="M1853.9894611878701,1889.628618901378 c-8.629585862159729,-42.481682538986206 -7.670742988586426,-47.309146463871 7.670742988586426,-47.309146463871 c21.09454321861267,0 27.806443333625793,-18.344362914562225 14.382643103599548,-34.75774025917053 c-9.588428735733032,-12.55140620470047 -7.670742988586426,-19.309855699539185 13.423800230026245,-39.58520418405533 l23.97107183933258,-25.10281240940094 l76.70742988586426,71.44646608829498 c42.18908643722534,39.58520418405533 75.74858701229095,72.41195887327194 74.78974413871765,73.3774516582489 c-0.9588428735733037,1.9309855699539185 -36.43602919578552,6.7584494948387155 -78.62511563301086,12.55140620470047 c-41.23024356365204,5.7929567098617545 -87.2547014951706,12.55140620470047 -100.67850172519684,15.447884559631348 c-22.053386092185974,3.861971139907837 -25.888757586479187,0.9654927849769588 -31.641814827919006,-26.0683051943779 z" id="svg_11" fill="url(#svg_35)" fill-opacity="1" stroke="#db7f91" stroke-opacity="1"/>
<path d="M1399.4979391141244,1816.2511672431292 c-9.588428735733032,-3.861971139907837 -9.588428735733032,-7.723942279815674 -0.9588428735733037,-18.344362914562225 c12.464957356452942,-15.447884559631348 27.806443333625793,-9.654927849769592 27.806443333625793,11.58591341972351 c0,14.482391774654388 -5.753057241439819,15.447884559631348 -26.84760046005249,6.7584494948387155 z" id="svg_12" fill="url(#svg_35)" fill-opacity="1" stroke="#db7f91" stroke-opacity="1"/>
<path d="M1800.2942602677651,1808.5272249633135 c0,-7.723942279815674 5.753057241439819,-14.482391774654388 13.423800230026245,-14.482391774654388 c21.09454321861267,0 26.84760046005249,16.413377344608307 9.588428735733032,23.17182683944702 c-21.09454321861267,8.689435064792633 -23.012228965759277,7.723942279815674 -23.012228965759277,-8.689435064792633 z" id="svg_13" fill="url(#svg_35)" fill-opacity="1" stroke="#db7f91" stroke-opacity="1"/>
<path d="M1478.1230547471353,1577.7744493538203 c-7.670742988586426,-21.240841269493103 0.9588428735733037,-28.964783549308777 20.135700345039368,-18.344362914562225 c14.382643103599548,8.689435064792633 14.382643103599548,10.620420634746552 0.9588428735733037,21.240841269493103 c-12.464957356452942,10.620420634746552 -16.300328850746155,9.654927849769592 -21.09454321861267,-2.8964783549308777 z" id="svg_14" fill="url(#svg_35)" fill-opacity="1" stroke="#db7f91" stroke-opacity="1"/>
<path d="M1724.5456732554742,1577.7744493538203 c-8.629585862159729,-10.620420634746552 -7.670742988586426,-14.482391774654388 4.794214367866516,-19.309855699539185 c21.09454321861267,-7.723942279815674 23.012228965759277,-7.723942279815674 23.012228965759277,7.723942279815674 c0,20.275348484516144 -15.341485977172852,27.03379797935486 -27.806443333625793,11.58591341972351 z" id="svg_15" fill="url(#svg_35)" fill-opacity="1" stroke="#db7f91" stroke-opacity="1"/>
<path d="M1364.0207527919122,1539.154737954742 c-15.341485977172852,-68.5499877333641 -31.641814827919006,-175.71968686580658 -27.806443333625793,-178.61616522073746 c6.7119001150131234,-7.723942279815674 167.79750287532806,79.17040836811066 173.55056011676788,93.65280014276505 c2.8765286207199097,5.7929567098617545 -1.9176857471466064,22.206334054470062 -10.547271609306335,35.72323304414749 c-12.464957356452942,19.309855699539185 -21.09454321861267,23.17182683944702 -39.31255781650543,18.344362914562225 c-21.09454321861267,-4.827463924884796 -23.97107183933258,-2.8964783549308777 -22.053386092185974,16.413377344608307 c2.8765286207199097,19.309855699539185 -2.8765286207199097,23.17182683944702 -33.55950057506561,28.964783549308777 c-31.641814827919006,4.827463924884796 -36.43602919578552,2.8964783549308777 -40.271400690078735,-14.482391774654388 z" id="svg_16" fill="url(#svg_35)" fill-opacity="1" stroke="#db7f91" stroke-opacity="1"/>
<path d="M1819.4711177392312,1552.6716369444193 c-25.888757586479187,-3.861971139907837 -33.55950057506561,-9.654927849769592 -33.55950057506561,-24.13731962442398 c0,-13.51689898967743 -6.7119001150131234,-19.309855699539185 -21.09454321861267,-19.309855699539185 c-23.012228965759277,0 -55.61288666725159,-37.65421861410141 -47.94214367866516,-55.998581528663635 c2.8765286207199097,-6.7584494948387155 44.10677218437195,-32.826754689216614 93.00775873661041,-58.89505988359451 c69.99552977085114,-36.68872582912445 87.2547014951706,-42.481682538986206 83.41933000087738,-28.964783549308777 c-2.8765286207199097,10.620420634746552 -10.547271609306335,53.10210317373276 -16.300328850746155,95.58378571271896 c-6.7119001150131234,42.481682538986206 -14.382643103599548,82.06688672304153 -17.259171724319458,86.89435064792633 c-3.835371494293213,5.7929567098617545 -22.053386092185974,7.723942279815674 -40.271400690078735,4.827463924884796 z" id="svg_17" fill="url(#svg_35)" fill-opacity="1" stroke="#db7f91" stroke-opacity="1"/>
<path d="M1250.8772937102624,1304.5399912053408 c-8.629585862159729,-14.482391774654388 -18.21801459789276,-89.79082900285721 -11.506114482879639,-89.79082900285721 c13.423800230026245,0 81.50164425373077,42.481682538986206 81.50164425373077,50.20562481880188 c0,25.10281240940094 -59.4482581615448,57.929567098617554 -69.99552977085114,39.58520418405533 z" id="svg_18" fill="url(#svg_35)" fill-opacity="1" stroke="#db7f91" stroke-opacity="1"/>
<path d="M1925.9026767058679,1292.9540777856173 c-11.506114482879639,-11.58591341972351 -20.135700345039368,-24.13731962442398 -20.135700345039368,-29.930276334285736 c0,-10.620420634746552 75.74858701229095,-52.1366103887558 83.41933000087738,-45.378160893917084 c1.9176857471466064,2.8964783549308777 0.9588428735733037,24.13731962442398 -3.835371494293213,47.309146463871 c-9.588428735733032,48.27463924884796 -29.7241290807724,57.929567098617554 -59.4482581615448,27.999290764331818 z" id="svg_19" fill="url(#svg_35)" fill-opacity="1" stroke="#db7f91" stroke-opacity="1"/>
<path d="M1114.7216056628533,1251.437888031608 c-2.8765286207199097,-23.17182683944702 -14.382643103599548,-88.82533621788025 -24.929914712905884,-145.78941053152084 c-10.547271609306335,-57.929567098617554 -18.21801459789276,-109.10068470239639 -16.300328850746155,-112.96265584230423 c1.9176857471466064,-4.827463924884796 64.24247252941132,24.13731962442398 139.03221666812897,63.72252380847931 l137.11453092098236,72.41195887327194 l-15.341485977172852,30.895769119262695 c-8.629585862159729,17.378870129585266 -17.259171724319458,31.861261904239655 -18.21801459789276,33.79224747419357 c-1.9176857471466064,1.9309855699539185 -33.55950057506561,-12.55140620470047 -70.95437264442444,-30.895769119262695 c-77.66627275943756,-39.58520418405533 -76.70742988586426,-40.55069696903229 -56.57172954082489,55.998581528663635 c11.506114482879639,61.79153823852539 5.753057241439819,73.3774516582489 -42.18908643722534,73.3774516582489 c-22.053386092185974,0 -25.888757586479187,-4.827463924884796 -31.641814827919006,-40.55069696903229 z" id="svg_20" fill="url(#svg_35)" fill-opacity="1" stroke="#db7f91" stroke-opacity="1"/>
<path d="M2045.7580359025308,1285.2301355058016 c-13.423800230026245,-3.861971139907837 -16.300328850746155,-10.620420634746552 -12.464957356452942,-31.861261904239655 c13.423800230026245,-64.68801659345627 18.21801459789276,-127.44504761695862 10.547271609306335,-124.54856926202774 c-4.794214367866516,1.9309855699539185 -35.47718632221222,18.344362914562225 -68.07784402370453,35.72323304414749 c-32.60065770149231,16.413377344608307 -62.32478678226471,30.895769119262695 -64.24247252941132,30.895769119262695 c-10.547271609306335,0 -35.47718632221222,-60.82604545354843 -27.806443333625793,-67.58449494838715 c19.176857471466064,-19.309855699539185 271.3525332212448,-145.78941053152084 271.3525332212448,-136.13448268175125 c0,5.7929567098617545 -10.547271609306335,72.41195887327194 -23.97107183933258,147.72039610147476 c-13.423800230026245,75.30843722820282 -23.97107183933258,140.96194660663605 -23.97107183933258,144.82391774654388 c0,7.723942279815674 -31.641814827919006,8.689435064792633 -61.365943908691406,0.9654927849769588 z" id="svg_21" fill="url(#svg_35)" fill-opacity="1" stroke="#db7f91" stroke-opacity="1"/>
<path d="M1516.4767696900674,765.7950171881976 c-3.835371494293213,-7.723942279815674 -3.835371494293213,-62.75703102350235 -1.9176857471466064,-121.65209090709686 c2.8765286207199097,-98.48026406764984 4.794214367866516,-109.10068470239639 25.888757586479187,-125.5140620470047 c26.84760046005249,-22.206334054470062 68.07784402370453,-24.13731962442398 68.07784402370453,-3.861971139907837 c0,7.723942279815674 -10.547271609306335,16.413377344608307 -23.012228965759277,20.275348484516144 c-25.888757586479187,5.7929567098617545 -30.682971954345703,22.206334054470062 -33.55950057506561,103.30772799253464 c-1.9176857471466064,51.17111760377884 10.547271609306335,74.34294444322586 38.35371494293213,74.34294444322586 c10.547271609306335,0 18.21801459789276,6.7584494948387155 18.21801459789276,14.482391774654388 c0,9.654927849769592 -9.588428735733032,14.482391774654388 -29.7241290807724,14.482391774654388 c-21.09454321861267,0 -30.682971954345703,4.827463924884796 -34.518343448638916,19.309855699539185 c-5.753057241439819,23.17182683944702 -20.135700345039368,25.10281240940094 -27.806443333625793,4.827463924884796 z" id="svg_22" fill="url(#svg_35)" fill-opacity="1" stroke="#db7f91" stroke-opacity="1"/>
<path d="M2016.0339068217584,768.6914955431284 c-10.547271609306335,-26.0683051943779 -0.9588428735733037,-237.51122510433197 10.547271609306335,-249.09713852405548 c5.753057241439819,-5.7929567098617545 25.888757586479187,-12.55140620470047 45.06561505794525,-16.413377344608307 c27.806443333625793,-3.861971139907837 35.47718632221222,-1.9309855699539185 35.47718632221222,9.654927849769592 c0,7.723942279815674 -10.547271609306335,17.378870129585266 -23.97107183933258,20.275348484516144 c-28.765286207199097,7.723942279815674 -35.47718632221222,29.930276334285736 -31.641814827919006,111.99716305732727 c2.8765286207199097,60.82604545354843 3.835371494293213,62.75703102350235 29.7241290807724,65.65350937843323 c35.47718632221222,3.861971139907837 34.518343448638916,30.895769119262695 -1.9176857471466064,30.895769119262695 c-17.259171724319458,0 -32.60065770149231,7.723942279815674 -42.18908643722534,22.206334054470062 c-12.464957356452942,18.344362914562225 -15.341485977172852,19.309855699539185 -21.09454321861267,4.827463924884796 z" id="svg_23" fill="url(#svg_35)" fill-opacity="1" stroke="#db7f91" stroke-opacity="1"/>
<path d="M555.7162103696176,731.037276929027 c-60.4071010351181,-17.378870129585266 -88.2135443687439,-108.13519191741943 -53.69520092010498,-173.78870129585266 c18.21801459789276,-36.68872582912445 71.91321551799774,-60.82604545354843 115.06114482879639,-52.1366103887558 c27.806443333625793,4.827463924884796 32.60065770149231,2.8964783549308777 36.43602919578552,-16.413377344608307 c2.8765286207199097,-12.55140620470047 3.835371494293213,-32.826754689216614 2.8765286207199097,-46.34365367889404 c-0.9588428735733037,-15.447884559631348 3.835371494293213,-25.10281240940094 15.341485977172852,-27.03379797935486 c15.341485977172852,-2.8964783549308777 16.300328850746155,9.654927849769592 16.300328850746155,155.44433838129044 l0,158.3408167362213 l-35.47718632221222,6.7584494948387155 c-45.06561505794525,6.7584494948387155 -57.53057241439819,6.7584494948387155 -96.84313023090363,-4.827463924884796 zm97.80197310447693,-44.412668108940125 c6.7119001150131234,-24.13731962442398 0.9588428735733037,-122.61758369207382 -7.670742988586426,-136.13448268175125 c-3.835371494293213,-6.7584494948387155 -23.97107183933258,-11.58591341972351 -45.06561505794525,-11.58591341972351 c-51.777515172958374,0 -75.74858701229095,26.0683051943779 -75.74858701229095,82.06688672304153 c0,57.929567098617554 23.012228965759277,82.06688672304153 80.54280138015747,82.06688672304153 c32.60065770149231,0 44.10677218437195,-3.861971139907837 47.94214367866516,-16.413377344608307 z" id="svg_24" fill="url(#svg_35)" fill-opacity="1" stroke="#db7f91" stroke-opacity="1"/>
<path d="M764.7439568085977,648.0048974210085 c0,-106.20420634746552 10.547271609306335,-132.27251154184341 56.57172954082489,-142.89293217658997 c17.259171724319458,-3.861971139907837 42.18908643722534,0 64.24247252941132,9.654927849769592 c32.60065770149231,13.51689898967743 37.394872069358826,13.51689898967743 44.10677218437195,0 c20.135700345039368,-34.75774025917053 26.84760046005249,-8.689435064792633 26.84760046005249,106.20420634746552 c0,96.54927849769592 -2.8765286207199097,120.6865981221199 -13.423800230026245,120.6865981221199 c-20.135700345039368,0 -24.929914712905884,-22.206334054470062 -24.929914712905884,-106.20420634746552 c0,-65.65350937843323 -2.8765286207199097,-78.2049155831337 -18.21801459789276,-86.89435064792633 c-25.888757586479187,-13.51689898967743 -72.87205839157104,-12.55140620470047 -85.33701574802399,2.8964783549308777 c-5.753057241439819,6.7584494948387155 -11.506114482879639,51.17111760377884 -13.423800230026245,98.48026406764984 c-2.8765286207199097,73.3774516582489 -5.753057241439819,86.89435064792633 -19.176857471466064,89.79082900285721 c-15.341485977172852,2.8964783549308777 -17.259171724319458,-6.7584494948387155 -17.259171724319458,-91.72181457281113 z" id="svg_25" fill="url(#svg_35)" fill-opacity="1" stroke="#db7f91" stroke-opacity="1"/>
<path d="M1095.5447481913873,733.9337552839579 c-54.654043793678284,-19.309855699539185 -71.91321551799774,-48.27463924884796 -71.91321551799774,-117.79011976718903 c0,-41.51618975400925 4.794214367866516,-54.06759595870972 26.84760046005249,-77.23942279815674 c31.641814827919006,-30.895769119262695 85.33701574802399,-45.378160893917084 127.52610218524933,-32.826754689216614 c46.024457931518555,13.51689898967743 32.60065770149231,27.999290764331818 -25.888757586479187,29.930276334285736 c-57.53057241439819,0.9654927849769588 -90.1312301158905,20.275348484516144 -90.1312301158905,53.10210317373276 c0,15.447884559631348 8.629585862159729,17.378870129585266 76.70742988586426,17.378870129585266 c86.29585862159729,0 93.00775873661041,4.827463924884796 82.46048712730408,62.75703102350235 c-9.588428735733032,50.20562481880188 -72.87205839157104,83.0323795080185 -125.60841643810272,64.68801659345627 zm79.58395850658417,-47.309146463871 c23.97107183933258,-32.826754689216614 14.382643103599548,-41.51618975400925 -50.81867229938507,-41.51618975400925 c-65.20131540298462,0 -75.74858701229095,8.689435064792633 -49.85982942581177,40.55069696903229 c23.97107183933258,30.895769119262695 76.70742988586426,30.895769119262695 100.67850172519684,0.9654927849769588 z" id="svg_26" fill="url(#svg_35)" fill-opacity="1" stroke="#db7f91" stroke-opacity="1"/>
<path d="M1315.1197662396737,728.1407985740962 c-72.87205839157104,-31.861261904239655 -47.94214367866516,-121.65209090709686 33.55950057506561,-121.65209090709686 c51.777515172958374,0 68.07784402370453,-7.723942279815674 68.07784402370453,-33.79224747419357 c0,-30.895769119262695 -12.464957356452942,-36.68872582912445 -78.62511563301086,-34.75774025917053 c-41.23024356365204,0.9654927849769588 -56.57172954082489,-1.9309855699539185 -53.69520092010498,-10.620420634746552 c10.547271609306335,-30.895769119262695 119.8553591966629,-31.861261904239655 153.41485977172852,-0.9654927849769588 c23.012228965759277,21.240841269493103 22.053386092185974,72.41195887327194 -0.9588428735733037,93.65280014276505 c-10.547271609306335,9.654927849769592 -42.18908643722534,20.275348484516144 -69.99552977085114,24.13731962442398 c-38.35371494293213,3.861971139907837 -51.777515172958374,9.654927849769592 -53.69520092010498,24.13731962442398 c-5.753057241439819,28.964783549308777 12.464957356452942,37.65421861410141 73.83090126514435,35.72323304414749 c44.10677218437195,-0.9654927849769588 58.4894152879715,1.9309855699539185 58.4894152879715,12.55140620470047 c0,7.723942279815674 -14.382643103599548,15.447884559631348 -35.47718632221222,19.309855699539185 c-49.85982942581177,7.723942279815674 -60.4071010351181,6.7584494948387155 -94.92544448375702,-7.723942279815674 z" id="svg_27" fill="url(#svg_35)" fill-opacity="1" stroke="#db7f91" stroke-opacity="1"/>
<path d="M1824.2653321070977,734.8992480689349 c-32.60065770149231,-8.689435064792633 -52.73635804653168,-32.826754689216614 -52.73635804653168,-66.61900216341019 c0,-40.55069696903229 28.765286207199097,-61.79153823852539 82.46048712730408,-61.79153823852539 c45.06561505794525,0 66.16015827655792,-18.344362914562225 56.57172954082489,-48.27463924884796 c-6.7119001150131234,-20.275348484516144 -20.135700345039368,-23.17182683944702 -88.2135443687439,-19.309855699539185 c-30.682971954345703,0.9654927849769588 -41.23024356365204,-1.9309855699539185 -41.23024356365204,-12.55140620470047 c0,-20.275348484516144 77.66627275943756,-30.895769119262695 119.8553591966629,-16.413377344608307 c52.73635804653168,17.378870129585266 68.07784402370453,65.65350937843323 36.43602919578552,105.23871356248856 c-12.464957356452942,15.447884559631348 -31.641814827919006,23.17182683944702 -71.91321551799774,27.03379797935486 c-57.53057241439819,5.7929567098617545 -71.91321551799774,19.309855699539185 -51.777515172958374,47.309146463871 c10.547271609306335,13.51689898967743 24.929914712905884,16.413377344608307 71.91321551799774,15.447884559631348 c43.147929310798645,-0.9654927849769588 58.4894152879715,1.9309855699539185 56.57172954082489,9.654927849769592 c-6.7119001150131234,20.275348484516144 -70.95437264442444,31.861261904239655 -117.9376734495163,20.275348484516144 z" id="svg_28" fill="url(#svg_35)" fill-opacity="1" stroke="#db7f91" stroke-opacity="1"/>
<path d="M2226.0204961343115,735.8647408539118 c-11.506114482879639,-2.8964783549308777 -30.682971954345703,-15.447884559631348 -43.147929310798645,-28.964783549308777 c-19.176857471466064,-20.275348484516144 -23.012228965759277,-34.75774025917053 -23.012228965759277,-85.92885786294937 c0,-51.17111760377884 3.835371494293213,-65.65350937843323 23.012228965759277,-84.96336507797241 c42.18908643722534,-45.378160893917084 145.7441167831421,-39.58520418405533 171.63287436962128,9.654927849769592 c29.7241290807724,56.964074313640594 19.176857471466064,145.78941053152084 -21.09454321861267,171.85771572589874 c-24.929914712905884,16.413377344608307 -75.74858701229095,25.10281240940094 -107.39040184020996,18.344362914562225 zm85.33701574802399,-47.309146463871 c39.31255781650543,-38.61971139907837 24.929914712905884,-134.20349711179733 -20.135700345039368,-146.7549033164978 c-61.365943908691406,-16.413377344608307 -97.80197310447693,13.51689898967743 -97.80197310447693,78.2049155831337 c0,56.964074313640594 21.09454321861267,83.0323795080185 67.11900115013123,83.0323795080185 c20.135700345039368,0 43.147929310798645,-6.7584494948387155 50.81867229938507,-14.482391774654388 z" id="svg_29" fill="url(#svg_35)" fill-opacity="1" stroke="#db7f91" stroke-opacity="1"/>
<path d="M2437.9247711940116,731.037276929027 c-2.8765286207199097,-7.723942279815674 -3.835371494293213,-61.79153823852539 -2.8765286207199097,-120.6865981221199 c1.9176857471466064,-85.92885786294937 5.753057241439819,-105.23871356248856 17.259171724319458,-105.23871356248856 c11.506114482879639,0 15.341485977172852,17.378870129585266 17.259171724319458,89.79082900285721 l2.8765286207199097,89.79082900285721 l32.60065770149231,14.482391774654388 c18.21801459789276,7.723942279815674 33.55950057506561,18.344362914562225 33.55950057506561,23.17182683944702 c0,13.51689898967743 -42.18908643722534,11.58591341972351 -55.61288666725159,-1.9309855699539185 c-8.629585862159729,-8.689435064792633 -14.382643103599548,-7.723942279815674 -24.929914712905884,7.723942279815674 c-12.464957356452942,15.447884559631348 -14.382643103599548,16.413377344608307 -20.135700345039368,2.8964783549308777 z" id="svg_30" fill="url(#svg_35)" fill-opacity="1" stroke="#db7f91" stroke-opacity="1"/>
<path d="M2627.7756601615256,727.1753057891192 c-16.300328850746155,-6.7584494948387155 -35.47718632221222,-22.206334054470062 -41.23024356365204,-33.79224747419357 c-16.300328850746155,-30.895769119262695 -13.423800230026245,-112.96265584230423 4.794214367866516,-140.96194660663605 c23.97107183933258,-36.68872582912445 77.66627275943756,-55.998581528663635 127.52610218524933,-46.34365367889404 c60.4071010351181,12.55140620470047 53.69520092010498,27.999290764331818 -11.506114482879639,29.930276334285736 c-59.4482581615448,1.9309855699539185 -92.04891586303711,20.275348484516144 -92.04891586303711,53.10210317373276 c0,15.447884559631348 8.629585862159729,17.378870129585266 76.70742988586426,17.378870129585266 c89.1723872423172,0 95.88428735733032,6.7584494948387155 77.66627275943756,69.51548051834106 c-9.588428735733032,28.964783549308777 -19.176857471466064,41.51618975400925 -44.10677218437195,52.1366103887558 c-40.271400690078735,16.413377344608307 -58.4894152879715,16.413377344608307 -97.80197310447693,-0.9654927849769588 zm95.88428735733032,-41.51618975400925 c32.60065770149231,-28.964783549308777 20.135700345039368,-40.55069696903229 -46.024457931518555,-40.55069696903229 c-54.654043793678284,0 -62.32478678226471,1.9309855699539185 -62.32478678226471,18.344362914562225 c0,44.412668108940125 66.16015827655792,57.929567098617554 108.34924471378326,22.206334054470062 z" id="svg_31" fill="url(#svg_35)" fill-opacity="1" stroke="#db7f91" stroke-opacity="1"/>
</g><path fill="url(#svg_35)" fill-opacity="1" stroke="#db7f91" stroke-opacity="1" stroke-width="1" stroke-dasharray="none" stroke-linejoin="miter" stroke-linecap="butt" stroke-dashoffset="" fill-rule="nonzero" opacity="1" marker-start="" marker-mid="" marker-end="" id="svg_40" d="M9.738083281806382,21.999984684444854 " style="color: rgb(219, 127, 145);" class=""/><path fill="url(#svg_35)" fill-opacity="1" stroke="#db7f91" stroke-opacity="1" stroke-width="1" stroke-dasharray="none" stroke-linejoin="miter" stroke-linecap="butt" stroke-dashoffset="" fill-rule="nonzero" opacity="0.92" marker-start="" marker-mid="" marker-end="" id="svg_44" d="M144.73807791738858,48.66665029147342 " style="color: rgb(219, 127, 145);" class=""/><rect fill="#ffffff" stroke="#db7f91" stroke-dashoffset="" fill-rule="nonzero" id="svg_34" x="159" y="125" width="2" height="0" style="color: rgb(219, 127, 145);"/></g></svg>